<svg width="25" height="25" viewBox="0 0 25 25" fill="none" xmlns="http://www.w3.org/2000/svg">
<path d="M12.8975 22.8818C11.5141 22.8818 10.2141 22.6193 8.99746 22.0943C7.78079 21.5693 6.72246 20.8568 5.82246 19.9568C4.92246 19.0568 4.20996 17.9985 3.68496 16.7818C3.15996 15.5652 2.89746 14.2652 2.89746 12.8818C2.89746 11.4985 3.15996 10.1985 3.68496 8.98184C4.20996 7.76517 4.92246 6.70684 5.82246 5.80684C6.72246 4.90684 7.78079 4.19434 8.99746 3.66934C10.2141 3.14434 11.5141 2.88184 12.8975 2.88184C15.3308 2.88184 17.46 3.64434 19.285 5.16934C21.11 6.69434 22.2475 8.60684 22.6975 10.9068H20.6475C20.3308 9.69017 19.76 8.60267 18.935 7.64434C18.11 6.686 17.0975 5.96517 15.8975 5.48184V5.88184C15.8975 6.43184 15.7016 6.90267 15.31 7.29434C14.9183 7.686 14.4475 7.88184 13.8975 7.88184H11.8975V9.88184C11.8975 10.1652 11.8016 10.4027 11.61 10.5943C11.4183 10.786 11.1808 10.8818 10.8975 10.8818H8.89746V12.8818H10.8975V15.8818H9.89746L5.09746 11.0818C5.04746 11.3818 5.00163 11.6818 4.95996 11.9818C4.91829 12.2818 4.89746 12.5818 4.89746 12.8818C4.89746 15.0652 5.66413 16.9402 7.19746 18.5068C8.73079 20.0735 10.6308 20.8652 12.8975 20.8818V22.8818ZM21.9975 22.3818L18.7975 19.1818C18.4475 19.3818 18.0725 19.5485 17.6725 19.6818C17.2725 19.8152 16.8475 19.8818 16.3975 19.8818C15.1475 19.8818 14.085 19.4443 13.21 18.5693C12.335 17.6943 11.8975 16.6318 11.8975 15.3818C11.8975 14.1318 12.335 13.0693 13.21 12.1943C14.085 11.3193 15.1475 10.8818 16.3975 10.8818C17.6475 10.8818 18.71 11.3193 19.585 12.1943C20.46 13.0693 20.8975 14.1318 20.8975 15.3818C20.8975 15.8318 20.8308 16.2568 20.6975 16.6568C20.5641 17.0568 20.3975 17.4318 20.1975 17.7818L23.3975 20.9818L21.9975 22.3818ZM16.3975 17.8818C17.0975 17.8818 17.6891 17.6402 18.1725 17.1568C18.6558 16.6735 18.8975 16.0818 18.8975 15.3818C18.8975 14.6818 18.6558 14.0902 18.1725 13.6068C17.6891 13.1235 17.0975 12.8818 16.3975 12.8818C15.6975 12.8818 15.1058 13.1235 14.6225 13.6068C14.1391 14.0902 13.8975 14.6818 13.8975 15.3818C13.8975 16.0818 14.1391 16.6735 14.6225 17.1568C15.1058 17.6402 15.6975 17.8818 16.3975 17.8818Z" fill="url(#paint0_linear_333_21410)"/>
<defs>
<linearGradient id="paint0_linear_333_21410" x1="2.89746" y1="12.8818" x2="23.3975" y2="12.8818" gradientUnits="userSpaceOnUse">
<stop stop-color="#5B2270"/>
<stop offset="1" stop-color="#D3464E"/>
</linearGradient>
</defs>
</svg>
