<svg width="42" height="30" viewBox="0 0 42 30" fill="none" xmlns="http://www.w3.org/2000/svg">
<path d="M22.4395 18.2715L22.4733 19.2709L22.4395 18.2715ZM15.8803 3.02612L16.6356 2.37071L15.8803 3.02612ZM0.279468 26.5383C0.176175 27.0808 0.532254 27.6044 1.07479 27.7076L9.91598 29.3909C10.4585 29.4942 10.9821 29.1381 11.0854 28.5956C11.1887 28.0531 10.8326 27.5295 10.29 27.4262L2.43121 25.93L3.92744 18.0711C4.03074 17.5286 3.67466 17.005 3.13212 16.9018C2.58958 16.7985 2.06603 17.1545 1.96274 17.6971L0.279468 26.5383ZM39.6289 6.13421C37.9046 9.70204 32.0106 16.948 22.4058 17.272L22.4733 19.2709C33.0931 18.9126 39.521 10.9537 41.4296 7.00446L39.6289 6.13421ZM22.4058 17.272C19.6107 17.3663 17.4251 16.1076 15.7843 14.2006C14.1264 12.2735 13.0582 9.71232 12.5848 7.36678C12.3491 6.19846 12.2673 5.11444 12.3219 4.22157C12.3781 3.30161 12.5722 2.69504 12.7854 2.38388C12.8828 2.24188 12.9593 2.19677 12.9967 2.18132C13.0271 2.16875 13.0964 2.14769 13.2458 2.18504C13.5971 2.27285 14.2273 2.64699 15.1251 3.68153L16.6356 2.37071C15.6566 1.24249 14.6892 0.484304 13.7309 0.244747C13.2255 0.118406 12.7121 0.1349 12.2328 0.332937C11.7606 0.528095 11.4007 0.866643 11.1357 1.25318C10.6245 1.99906 10.391 3.02903 10.3256 4.09958C10.2585 5.19722 10.3611 6.45771 10.6244 7.76241C11.1492 10.3629 12.3384 13.2618 14.2682 15.505C16.2154 17.7682 18.9481 19.3898 22.4733 19.2709L22.4058 17.272ZM15.1251 3.68153C16.3742 5.12096 16.6482 6.80448 16.1942 8.7119C15.7295 10.6641 14.5045 12.8065 12.8027 14.9721C9.40601 19.2943 4.34035 23.4222 0.699443 25.8984L1.8242 27.5522C5.55851 25.0124 10.8049 20.751 14.3752 16.2079C16.1568 13.9408 17.5789 11.5314 18.1398 9.17501C18.7114 6.77377 18.3894 4.39169 16.6356 2.37071L15.1251 3.68153Z" fill="#BCA8D4"/>
</svg>
