<svg width="21" height="21" viewBox="0 0 21 21" fill="none" xmlns="http://www.w3.org/2000/svg">
<path d="M16.0805 1.06489C16.3246 0.820817 16.7203 0.820817 16.9644 1.06489L20.7144 4.81489C20.9585 5.05897 20.9585 5.4547 20.7144 5.69878L8.21442 18.1988C8.15457 18.2586 8.08319 18.3057 8.0046 18.3371L1.7546 20.8371C1.52246 20.93 1.25733 20.8756 1.08054 20.6988C0.903748 20.522 0.849327 20.2569 0.942181 20.0247L3.44218 13.7747C3.47362 13.6961 3.52069 13.6247 3.58054 13.5649L16.0805 1.06489ZM14.9064 4.00684L17.7725 6.87295L19.3886 5.25684L16.5225 2.39072L14.9064 4.00684ZM16.8886 7.75684L14.0225 4.89072L5.89748 13.0157V13.3818H6.52248C6.86766 13.3818 7.14748 13.6617 7.14748 14.0068V14.6318H7.77248C8.11766 14.6318 8.39748 14.9117 8.39748 15.2568V15.8818H8.7636L16.8886 7.75684ZM4.68704 14.2262L4.55513 14.3581L2.64439 19.1349L7.42125 17.2242L7.55316 17.0923C7.31617 17.0034 7.14748 16.7748 7.14748 16.5068V15.8818H6.52248C6.1773 15.8818 5.89748 15.602 5.89748 15.2568V14.6318H5.27248C5.00447 14.6318 4.77587 14.4631 4.68704 14.2262Z" fill="url(#paint0_linear_225_10357)"/>
<defs>
<linearGradient id="paint0_linear_225_10357" x1="0.897461" y1="10.8818" x2="20.8975" y2="10.8818" gradientUnits="userSpaceOnUse">
<stop stop-color="#5B2270"/>
<stop offset="1" stop-color="#D3464E"/>
</linearGradient>
</defs>
</svg>
